#!OML:ASF F:\VICON\USERDATA\INSTALL\Justin_Nancy\Justin_Nancy.ASF
:FULLY-SPECIFIED
:DEGREES
295
root 0.735216 16.5125 -8.53481 20.9673 -0.276747 -0.361609
lowerback 19.8201 1.02276 0.731779
upperback -0.694776 1.88395 2.96041
thorax -12.0372 0.947161 2.31655
lowerneck -22.9448 -4.26617 -8.82681
upperneck 3.48264 -4.29414 10.761
head 5.12855 -1.4696 4.41177
rclavicle 6.75868e-015 1.90833e-014
rhumerus -27.0921 15.7879 -65.668
rradius 136.352
rwrist 3.9324
rhand -13.5744 24.4832
rfingers 7.12502
rthumb 12.5394 -5.1205
lclavicle 6.75868e-015 1.90833e-014
lhumerus -19.7928 -11.9219 63.9039
lradius 136.544
lwrist 9.58357
lhand -24.8479 8.80756
lfingers 7.12502
lthumb 1.6585 38.7809
rfemur -18.0359 -3.76318 17.4217
rtibia 51.4279
rfoot -10.4336 0.599166
rtoes -21.9628
lfemur -19.8833 2.33233 -16.1089
ltibia 51.9679
lfoot -12.1581 -5.47108
ltoes -30.3225
296
root 0.751802 16.7081 -8.06117 20.146 -0.531708 -0.529872
lowerback 17.1389 0.924721 0.857368
upperback -0.821904 1.73381 3.10905
thorax -10.6387 0.87685 2.46367
lowerneck -21.6844 -4.06102 -8.94757
upperneck 4.70534 -4.13339 10.4105
head 5.29905 -1.44372 4.34094
rclavicle 1.47101e-014 2.06736e-014
rhumerus -27.898 16.3256 -65.1166
rradius 134.762
rwrist 0.142859
rhand -12.7328 23.1163
rfingers 7.12502
rthumb 13.3508 -6.43598
lclavicle 1.47101e-014 2.06736e-014
lhumerus -23.1883 -12.4021 64.065
lradius 136.772
lwrist 8.56326
lhand -24.0761 9.01596
lfingers 7.12502
lthumb 2.40385 38.9822
rfemur -14.032 -3.70374 16.9357
rtibia 47.2215
rfoot -5.29689 2.73737
rtoes -18.6117
lfemur -15.8789 2.42441 -16.0146
ltibia 48.0292
lfoot -7.44923 -6.55733
ltoes -29.8274
297
root 0.768295 16.9168 -7.60657 19.283 -1.24837 -0.928264
lowerback 14.626 0.961173 1.03717
upperback -0.870482 1.76085 3.26263
thorax -9.25303 0.886106 2.53452
lowerneck -20.5879 -3.76601 -8.92212
upperneck 6.30255 -3.87606 9.88195
head 5.59235 -1.3756 4.20264
rclavicle -3.57812e-015 1.90833e-014
rhumerus -27.8412 16.7023 -64.9896
rradius 132.318
rwrist -3.80528
rhand -11.6084 20.5819
rfingers 7.12502
rthumb 14.4343 -8.89616
lclavicle -3.57812e-015 1.90833e-014
lhumerus -26.0722 -12.4551 64.9906
lradius 136.041
lwrist 7.42911
lhand -23.6422 9.48836
lfingers 7.12502
lthumb 2.82289 39.4494
rfemur -10.3788 -2.7645 16.563
rtibia 42.8596
rfoot 0.942082 3.77092
rtoes -16.1064
lfemur -12.0124 2.71304 -15.8702
ltibia 43.9905
lfoot -1.87039 -7.28886
ltoes -29.1189
298
root 0.774218 17.1527 -7.17298 18.4783 -2.35783 -1.36311
lowerback 12.4291 1.16727 1.04709
upperback -1.00195 1.98558 3.39304
thorax -8.15227 0.999705 2.6411
lowerneck -19.1385 -3.52233 -8.96908
upperneck 7.85573 -3.70132 9.49607
head 5.82805 -1.35072 4.11613
rclavicle 2.34566e-014 3.81667e-014
rhumerus -27.3807 16.7211 -65.3055
rradius 129.063
rwrist -5.9497
rhand -11.4882 18.974
rfingers 7.12502
rthumb 14.5501 -10.4957
lclavicle 2.34566e-014 3.81667e-014
lhumerus -28.648 -12.2969 66.7887
lradius 134.596
lwrist 6.45147
lhand -23.9095 10.0249
lfingers 7.12502
lthumb 2.56479 39.9893
rfemur -7.30267 -0.797198 16.2849
rtibia 38.6455
rfoot 8.30044 3.35272
rtoes -12.9184
lfemur -8.50577 2.78436 -15.8559
ltibia 39.9203
lfoot 4.7512 -7.17892
ltoes -28.1929
299
root 0.779501 17.4056 -6.70856 17.6804 -3.29317 -1.24926
lowerback 9.9065 1.26459 0.777557
upperback -1.04161 2.00256 3.35272
thorax -6.76218 1.01936 2.77896
lowerneck -17.6617 -3.30826 -8.95317
upperneck 9.42577 -3.57891 9.12182
head 6.0649 -1.35052 4.02001
rclavicle -4.37326e-015 1.59028e-014
rhumerus -26.8022 16.256 -65.9519
rradius 125.207
rwrist -5.09041
rhand -11.972 18.2745
rfingers 7.12502
rthumb 14.084 -11.2283
lclavicle -4.37326e-015 1.59028e-014
lhumerus -30.8633 -11.7989 69.0414
lradius 132.632
lwrist 6.19694
lhand -24.1954 10.9017
lfingers 7.12502
lthumb 2.28868 40.8691
rfemur -4.29244 1.20818 15.5336
rtibia 34.8026
rfoot 15.2173 1.45066
rtoes -5.07241
lfemur -5.17502 1.95802 -16.4908
ltibia 36.0506
lfoot 11.7712 -5.99375
ltoes -26.7284
300
root 0.805211 17.6819 -6.19411 16.7897 -3.69857 -0.936881
lowerback 7.01434 1.09448 0.867494
upperback -0.916673 1.69088 3.2209
thorax -4.96527 0.858867 2.67238
lowerneck -16.7251 -3.06551 -8.85734
upperneck 11.5572 -3.41594 8.75416
head 6.5629 -1.31511 3.92474
rclavicle 0 1.35174e-014
rhumerus -25.8771 15.5627 -66.8351
rradius 120.965
rwrist -2.88201
rhand -12.4096 17.4168
rfingers 7.12502
rthumb 13.6622 -12.1148
lclavicle 0 1.35174e-014
lhumerus -32.628 -10.8124 71.4467
lradius 130.144
lwrist 6.66854
lhand -24.507 12.062
lfingers 7.12502
lthumb 1.98767 42.0325
rfemur -1.2312 2.18091 14.693
rtibia 31.8148
rfoot 20.5328 1.66973
rtoes -2.53287
lfemur -1.85713 0.223615 -17.4749
ltibia 32.6683
lfoot 18.6464 -4.3015
ltoes -25.5209
301
root 0.81593 18.0114 -5.77121 16.1334 -4.29659 -0.840419
lowerback 5.49474 1.02303 0.802095
upperback -1.13249 1.55203 3.14226
thorax -4.32328 0.791405 2.66212
lowerneck -15.6968 -2.81058 -8.83099
upperneck 13.3625 -3.23242 8.59332
head 6.94633 -1.26088 3.91171
rclavicle -1.05356e-014 9.54166e-015
rhumerus -24.3541 14.8124 -67.9398
rradius 116.176
rwrist -0.644458
rhand -12.9521 16.4527
rfingers 7.12502
rthumb 13.1394 -13.1133
lclavicle -1.05356e-014 9.54166e-015
lhumerus -33.7819 -9.31386 73.7076
lradius 127.173
lwrist 7.6224
lhand -24.7707 13.3704
lfingers 7.12502
lthumb 1.73299 43.3431
rfemur 0.448271 4.07863 14.4878
rtibia 29.9546
rfoot 24.5949 1.83167
rtoes 2.5277
lfemur 0.430506 -1.46529 -18.3661
ltibia 30.2378
lfoot 26.02 -3.59796
ltoes -17.2472
302
root 0.828341 18.3465 -5.37335 15.5233 -5.1475 -0.797375
lowerback 4.39035 1.06344 0.736801
upperback -1.27417 1.57378 3.06435
thorax -3.84596 0.802948 2.63175
lowerneck -15.1126 -2.62975 -8.92826
upperneck 14.9845 -3.08759 8.52587
head 7.35616 -1.21637 3.94639
rclavicle 1.88845e-014 -5.56597e-015
rhumerus -22.2238 13.8437 -69.0435
rradius 110.976
rwrist 1.21763
rhand -13.0581 15.5332
rfingers 7.12502
rthumb 13.0372 -14.0394
lclavicle 1.88845e-014 -5.56597e-015
lhumerus -33.8821 -7.35627 75.7631
lradius 123.43
lwrist 8.28046
lhand -25.1262 14.3788
lfingers 7.12502
lthumb 1.38964 44.354
rfemur 1.28378 5.88399 14.3177
rtibia 29.7094
rfoot 26.636 2.13731
rtoes 8.09207
lfemur 2.04956 -2.36326 -19.3118
ltibia 28.9962
lfoot 32.3467 -5.03746
ltoes -6.06613
303
root 0.839909 18.6824 -5.00195 14.9105 -5.81926 -0.558094
lowerback 3.77144 1.04878 0.482551
upperback -1.37934 1.52703 3.02995
thorax -3.60885 0.785372 2.75179
lowerneck -14.8049 -2.50625 -9.02026
upperneck 16.3867 -2.92477 8.14472
head 7.74061 -1.18897 3.8752
rclavicle 1.49089e-014 2.46493e-014
rhumerus -19.8387 12.8512 -70.1634
rradius 105.457
rwrist 2.39647
rhand -13.3439 14.9504
rfingers 7.12502
rthumb 12.7617 -14.6396
lclavicle 1.49089e-014 2.46493e-014
lhumerus -33.0816 -4.9889 77.8111
lradius 118.991
lwrist 8.27062
lhand -25.3477 14.8889
lfingers 7.12502
lthumb 1.17571 44.8654
rfemur 1.56014 7.1041 14.0743
rtibia 30.9099
rfoot 26.9218 1.98628
rtoes 11.8495
lfemur 2.47393 -2.70739 -20.2327
ltibia 29.2237
lfoot 32.6075 -6.22681
ltoes -4.26676
304
root 0.846489 19.0067 -4.65413 14.5217 -6.25724 -0.281048
lowerback 3.091 1.0376 0.202934
upperback -1.49466 1.48772 3.03661
thorax -3.3495 0.772126 2.92884
lowerneck -14.1757 -2.47222 -9.20612
upperneck 17.1937 -2.83358 7.65786
head 7.88269 -1.21958 3.76578
rclavicle 2.56432e-014 6.04305e-014
rhumerus -17.3466 11.6784 -71.4281
rradius 99.3799
rwrist 3.15251
rhand -14.3208 14.5167
rfingers 7.12502
rthumb 11.8197 -15.1297
lclavicle 2.56432e-014 6.04305e-014
lhumerus -31.7855 -2.70413 79.9758
lradius 114.191
lwrist 8.04359
lhand -25.1792 14.8502
lfingers 7.12502
lthumb 1.33849 44.8257
rfemur 1.0263 7.64697 13.8705
rtibia 33.2991
rfoot 26.6882 1.04486
rtoes 12.3684
lfemur 2.07514 -2.46173 -20.8906
ltibia 30.6423
lfoot 30.3025 -7.46252
ltoes -5.55085
305
root 0.852471 19.3126 -4.32717 14.1995 -6.70522 -0.186926
lowerback 2.41283 1.1355 0.223637
upperback -1.53781 1.60614 3.01089
thorax -3.01593 0.82929 2.89503
lowerneck -13.3976 -2.46159 -9.3615
upperneck 17.7478 -2.78206 7.17447
head 7.91891 -1.26932 3.64373
rclavicle 2.42517e-014 7.15625e-015
rhumerus -14.9717 10.0187 -72.9367
rradius 92.9911
rwrist 3.47438
rhand -15.1027 14.156
rfingers 7.12502
rthumb 11.0657 -15.5323
lclavicle 2.42517e-014 7.15625e-015
lhumerus -30.195 -0.85606 82.0891
lradius 109.153
lwrist 7.91496
lhand -25.1626 15.0005
lfingers 7.12502
lthumb 1.35451 44.976
rfemur -0.0301482 7.67386 13.7808
rtibia 36.5907
rfoot 26.4029 0.193484
rtoes 9.53324
lfemur 1.42633 -1.69343 -21.2851
ltibia 32.9292
lfoot 29.3753 -8.64331
ltoes -6.78226
306
root 0.857852 19.6064 -4.02852 13.8052 -7.12973 -0.241647
lowerback 2.13197 1.28507 0.493052
upperback -1.59037 1.80899 2.94752
thorax -2.91119 0.92414 2.67292
lowerneck -12.4444 -2.40395 -9.6882
upperneck 18.2686 -2.71862 7.05334
head 7.91793 -1.29418 3.67476
rclavicle -2.18663e-015 3.97569e-015
rhumerus -12.9122 7.94123 -74.5456
rradius 86.5238
rwrist 3.00914
rhand -15.5307 13.9417
rfingers 7.12502
rthumb 10.6529 -15.7682
lclavicle -2.18663e-015 3.97569e-015
lhumerus -28.5598 0.634903 83.9909
lradius 103.828
lwrist 7.5974
lhand -25.095 15.2515
lfingers 7.12502
lthumb 1.41981 45.2266
rfemur -1.34334 7.36241 13.8308
rtibia 40.4775
rfoot 26.0074 -0.388408
rtoes 9.28133
lfemur 0.41341 -0.742073 -21.4854
ltibia 35.8209
lfoot 30.2491 -9.46607
ltoes -7.50314
307
root 0.858349 19.893 -3.74569 13.2016 -7.71803 -0.409315
lowerback 2.31814 1.49083 0.74172
upperback -1.53075 2.09356 2.90032
thorax -2.95632 1.06013 2.46666
lowerneck -11.7576 -2.30399 -10.0163
upperneck 18.9129 -2.61216 7.08885
head 8.00279 -1.28186 3.76598
rclavicle 2.78299e-015 -2.22639e-014
rhumerus -10.9545 5.60977 -76.1832
rradius 79.9173
rwrist 2.21968
rhand -15.7085 13.1954
rfingers 7.12502
rthumb 10.4814 -16.5233
lclavicle 2.78299e-015 -2.22639e-014
lhumerus -26.9059 2.01976 85.6492
lradius 98.2393
lwrist 7.26608
lhand -24.7736 15.9632
lfingers 7.12502
lthumb 1.7302 45.9359
rfemur -2.7383 7.15956 14.0473
rtibia 44.6382
rfoot 26.1324 -0.324395
rtoes 13.562
lfemur -0.684461 0.419521 -21.5657
ltibia 39.1422
lfoot 30.3213 -10.0269
ltoes -8.23693
